<?xml version="1.0" encoding="utf-8"?>
<svg xmlns="http://www.w3.org/2000/svg" fill="none" height="32" viewBox="0 0 196 32" width="196">
<g clip-path="url(#clip0_7294_54871)">
<path d="M26.2733 0H5.72671C2.56393 0 0 2.56393 0 5.72671V26.2733C0 29.4361 2.56393 32 5.72671 32H26.2733C29.4361 32 32 29.4361 32 26.2733V5.72671C32 2.56393 29.4361 0 26.2733 0Z" fill="#E99936"/>
<path d="M26 13.4909C26 19.6902 16.733 24.7082 16.3384 24.9154C16.2344 24.9709 16.1181 25 16 25C15.8819 25 15.7656 24.9709 15.6616 24.9154C15.267 24.7082 6 19.6902 6 13.4909C6.00166 12.0351 6.58541 10.6394 7.6232 9.61005C8.66099 8.58067 10.0681 8.00164 11.5357 8C13.3794 8 14.9937 8.78643 16 10.1158C17.0063 8.78643 18.6206 8 20.4643 8C21.9319 8.00164 23.339 8.58067 24.3768 9.61005C25.4146 10.6394 25.9984 12.0351 26 13.4909Z" fill="#FEF1EA"/>
<path d="M183.838 17.4619V28H179.601V9.98534H183.758V13.063H183.967C184.375 12.0532 185.015 11.2529 185.885 10.6621C186.766 10.0605 187.883 9.75977 189.236 9.75977C190.482 9.75977 191.567 10.0229 192.491 10.5493C193.415 11.0757 194.129 11.8491 194.634 12.8696C195.15 13.8794 195.408 15.104 195.408 16.5435V28H191.17V17.2041C191.17 16.001 190.858 15.061 190.235 14.3843C189.612 13.6968 188.753 13.353 187.657 13.353C186.916 13.353 186.255 13.5142 185.675 13.8364C185.106 14.1587 184.655 14.626 184.322 15.2383C184 15.8398 183.838 16.5811 183.838 17.4619Z" fill="black"/>
<path d="M166.968 28.3706C165.818 28.3706 164.787 28.1665 163.874 27.7583C162.961 27.3394 162.241 26.7271 161.715 25.9214C161.188 25.1157 160.925 24.1221 160.925 22.9404C160.925 21.9307 161.113 21.0928 161.489 20.4268C161.865 19.7607 162.375 19.229 163.02 18.8315C163.675 18.4341 164.411 18.1333 165.228 17.9292C166.044 17.7144 166.887 17.564 167.757 17.478C168.821 17.3599 169.68 17.2578 170.335 17.1719C170.991 17.0859 171.463 16.9463 171.753 16.7529C172.054 16.5596 172.205 16.2588 172.205 15.8506V15.77C172.205 14.8999 171.947 14.2231 171.431 13.7397C170.916 13.2563 170.164 13.0146 169.175 13.0146C168.133 13.0146 167.306 13.2402 166.694 13.6914C166.092 14.1426 165.684 14.6743 165.469 15.2866L161.521 14.7227C161.833 13.627 162.349 12.7139 163.068 11.9834C163.788 11.2422 164.664 10.689 165.695 10.3237C166.737 9.94775 167.886 9.75977 169.143 9.75977C170.002 9.75977 170.862 9.86182 171.721 10.0659C172.581 10.2593 173.37 10.5923 174.09 11.0649C174.81 11.5376 175.384 12.1714 175.814 12.9663C176.244 13.7612 176.458 14.7549 176.458 15.9473V28H172.382V25.5186H172.253C171.995 26.0127 171.63 26.48 171.157 26.9204C170.695 27.3501 170.115 27.6992 169.417 27.9678C168.729 28.2363 167.913 28.3706 166.968 28.3706ZM168.047 25.2446C168.907 25.2446 169.648 25.0781 170.271 24.7451C170.894 24.4014 171.377 23.9502 171.721 23.3916C172.065 22.8223 172.237 22.2046 172.237 21.5386V19.4277C172.097 19.5352 171.872 19.6372 171.56 19.7339C171.249 19.8198 170.894 19.9004 170.497 19.9756C170.099 20.0508 169.707 20.1152 169.32 20.1689C168.944 20.2227 168.617 20.2656 168.337 20.2979C167.704 20.3838 167.134 20.5288 166.629 20.7329C166.135 20.9263 165.743 21.1948 165.453 21.5386C165.163 21.8823 165.018 22.3281 165.018 22.876C165.018 23.6602 165.303 24.251 165.872 24.6484C166.441 25.0459 167.167 25.2446 168.047 25.2446Z" fill="black"/>
<path d="M158.637 3.99121V28H154.399V3.99121H158.637Z" fill="black"/>
<path d="M134.564 28V3.99121H143.571C145.419 3.99121 146.966 4.33496 148.212 5.02246C149.469 5.70996 150.419 6.65527 151.064 7.8584C151.708 9.06152 152.031 10.4258 152.031 11.9512C152.031 13.4873 151.703 14.8569 151.048 16.0601C150.403 17.2524 149.447 18.1924 148.18 18.8799C146.912 19.5566 145.354 19.895 143.507 19.895H137.545V16.3179H142.911C143.996 16.3179 144.882 16.1353 145.569 15.77C146.268 15.394 146.778 14.8784 147.1 14.2231C147.433 13.5571 147.6 12.7998 147.6 11.9512C147.6 11.0918 147.433 10.3398 147.1 9.69531C146.778 9.04004 146.268 8.53516 145.569 8.18066C144.882 7.81543 143.99 7.63281 142.895 7.63281H138.915V28H134.564Z" fill="black"/>
<path d="M115.905 28.3706C114.036 28.3706 112.414 28.0806 111.039 27.5005C109.664 26.9204 108.589 26.0771 107.816 24.9707C107.042 23.8535 106.624 22.5 106.559 20.9102H110.845C110.91 21.748 111.167 22.4463 111.619 23.0049C112.07 23.5527 112.661 23.9663 113.391 24.2456C114.132 24.5249 114.954 24.6646 115.856 24.6646C116.802 24.6646 117.634 24.5195 118.354 24.2295C119.074 23.9395 119.638 23.5366 120.046 23.021C120.454 22.5054 120.658 21.9038 120.658 21.2163C120.658 20.5933 120.476 20.083 120.11 19.6855C119.745 19.2773 119.24 18.9336 118.596 18.6543C117.951 18.375 117.194 18.1279 116.324 17.9131L113.601 17.2041C111.624 16.6992 110.066 15.9312 108.928 14.8999C107.789 13.8579 107.22 12.4722 107.22 10.7427C107.22 9.32471 107.601 8.08936 108.364 7.03662C109.126 5.97314 110.168 5.146 111.49 4.55518C112.822 3.96436 114.326 3.66895 116.001 3.66895C117.709 3.66895 119.208 3.96436 120.497 4.55518C121.786 5.146 122.796 5.96239 123.526 7.00438C124.257 8.04638 124.638 9.24414 124.67 10.5977H120.465C120.357 9.56641 119.901 8.77147 119.095 8.21288C118.3 7.64354 117.253 7.35889 115.953 7.35889C115.051 7.35889 114.272 7.49316 113.617 7.76172C112.972 8.03027 112.478 8.40088 112.134 8.87354C111.791 9.34619 111.619 9.8833 111.619 10.4849C111.619 11.1509 111.817 11.6987 112.215 12.1284C112.623 12.5474 113.139 12.8857 113.762 13.1436C114.396 13.4014 115.04 13.6162 115.695 13.7881L117.935 14.3521C118.837 14.5669 119.708 14.8569 120.545 15.2222C121.383 15.5767 122.135 16.0278 122.801 16.5757C123.478 17.1128 124.01 17.7681 124.396 18.5415C124.794 19.3149 124.993 20.2227 124.993 21.2646C124.993 22.6611 124.633 23.8965 123.913 24.9707C123.193 26.0342 122.157 26.8667 120.803 27.4683C119.45 28.0698 117.817 28.3706 115.905 28.3706Z" fill="black"/>
<path d="M93.5396 28.3223C91.4448 28.3223 89.5596 27.8335 87.8838 26.856C86.2188 25.8784 84.9028 24.4712 83.936 22.6343C82.98 20.7974 82.502 18.5898 82.502 16.0117C82.502 13.4229 82.98 11.21 83.936 9.37304C84.9028 7.52538 86.2188 6.11279 87.8838 5.13525C89.5596 4.15771 91.4448 3.66895 93.5396 3.66895C95.645 3.66895 97.5249 4.15771 99.1792 5.13525C100.833 6.11279 102.144 7.52538 103.111 9.37304C104.078 11.21 104.561 13.4229 104.561 16.0117C104.561 18.5898 104.078 20.7974 103.111 22.6343C102.144 24.4712 100.833 25.8784 99.1792 26.856C97.5249 27.8335 95.645 28.3223 93.5396 28.3223ZM93.5396 24.4229C94.8394 24.4229 95.9888 24.1006 96.9878 23.4561C97.9868 22.8115 98.771 21.8662 99.3403 20.6201C99.9097 19.3633 100.194 17.8271 100.194 16.0117C100.194 14.1855 99.9097 12.644 99.3403 11.3872C98.771 10.1304 97.9868 9.17969 96.9878 8.53516C95.9888 7.89062 94.8394 7.56836 93.5396 7.56836C92.2397 7.56836 91.085 7.89062 90.0752 8.53516C89.0762 9.17969 88.292 10.1304 87.7227 11.3872C87.1533 12.644 86.8687 14.1855 86.8687 16.0117C86.8687 17.8271 87.1533 19.3633 87.7227 20.6201C88.292 21.8662 89.0762 22.8115 90.0752 23.4561C91.085 24.1006 92.2397 24.4229 93.5396 24.4229Z" fill="black"/>
<path d="M70.1592 28.3223C68.0537 28.3223 66.1685 27.8335 64.5034 26.856C62.8491 25.8784 61.5439 24.4712 60.5879 22.6343C59.6426 20.7974 59.1699 18.5898 59.1699 16.0117C59.1699 13.4229 59.6479 11.21 60.604 9.37304C61.5708 7.52538 62.8813 6.11279 64.5356 5.13525C66.2007 4.15771 68.0752 3.66895 70.1592 3.66895C71.4805 3.66895 72.7158 3.85693 73.8652 4.23291C75.0254 4.60889 76.0566 5.16211 76.959 5.89258C77.8613 6.6123 78.5972 7.49853 79.1665 8.55126C79.7466 9.59326 80.1279 10.7803 80.3105 12.1123H75.9277C75.8096 11.3818 75.5786 10.7373 75.2349 10.1787C74.9019 9.62012 74.4829 9.14746 73.978 8.76074C73.4839 8.36328 72.9199 8.06786 72.2861 7.87451C71.6523 7.6704 70.9702 7.56836 70.2397 7.56836C68.9292 7.56836 67.769 7.89599 66.7593 8.55126C65.7495 9.19579 64.96 10.1519 64.3906 11.4194C63.8213 12.6763 63.5366 14.207 63.5366 16.0117C63.5366 17.8379 63.8213 19.3794 64.3906 20.6362C64.9707 21.8823 65.7603 22.8276 66.7593 23.4722C67.769 24.106 68.9238 24.4229 70.2236 24.4229C70.9434 24.4229 71.6147 24.3315 72.2378 24.1489C72.8608 23.9556 73.4248 23.6709 73.9297 23.2949C74.4453 22.9082 74.8696 22.4463 75.2026 21.9092C75.5464 21.3613 75.7881 20.7329 75.9277 20.0239H80.3105C80.1494 21.1733 79.7949 22.2529 79.2471 23.2627C78.71 24.2617 78.001 25.1426 77.1201 25.9053C76.25 26.6572 75.2295 27.248 74.0586 27.6777C72.8877 28.1074 71.5879 28.3223 70.1592 28.3223Z" fill="black"/>
<path d="M39.7534 28V3.99121H48.7607C50.6084 3.99121 52.1553 4.33496 53.4014 5.02246C54.6582 5.70996 55.6089 6.65527 56.2534 7.8584C56.8979 9.06152 57.2202 10.4258 57.2202 11.9512C57.2202 13.4873 56.8926 14.8569 56.2373 16.0601C55.5928 17.2524 54.6367 18.1924 53.3691 18.8799C52.1016 19.5566 50.5439 19.895 48.6963 19.895H42.7344V16.3179H48.1001C49.1851 16.3179 50.0713 16.1353 50.7588 15.77C51.457 15.394 51.9673 14.8784 52.2896 14.2231C52.6226 13.5571 52.7891 12.7998 52.7891 11.9512C52.7891 11.0918 52.6226 10.3398 52.2896 9.69531C51.9673 9.04004 51.457 8.53516 50.7588 8.18066C50.0713 7.81543 49.1797 7.63281 48.084 7.63281H44.104V28H39.7534Z" fill="black"/>
</g>
<defs>
<clipPath id="clip0_7294_54871">
<rect fill="white" height="32" width="196"/>
</clipPath>
</defs>
</svg>